# xmcd CD database file
#
# Track frame offsets:
#	150
#	20783
#	43564
#	64929
#	86260
#	102109
#	118885
#	135485
#	156875
#	172738
#	192338
#	209979
#	236613
#	256758
#	274879
#	295575
#
# Disc length: 4230 seconds
#
# Revision: 1
# Processed by: cddbd v1.5.2PL0 Copyright (c) Steve Scherf et al.
# Submitted via: Hanso CD Extractor 
#
DISCID=e4108410
DTITLE=Varios Artistas - 50 Aniversario Del Merengue
DYEAR=2000
DGENRE=Merengue
TTITLE0=Wilfredo Vargas - El Jardinero
TTITLE1=Henry Garcia - Sisi Y Ricardo
TTITLE2=Sergio Vargas - Si Algun Dia La Ves
TTITLE3=Bonny Cepeda - El Manda Mas
TTITLE4=Luis Ovalle - Se Fue La Luz
TTITLE5=Alex Bueno - Llemaya
TTITLE6=Los Hijos Del Rey - Maria Dolores
TTITLE7=Jossie Esteban - La Mujer De Antonio
TTITLE8=El Zafiro (Carlos Manuel) - No Se Que Hacer
TTITLE9=Ruby Perez - Volvere
TTITLE10=Cheche Abreu - La Negra Pola
TTITLE11=Vicente Pacheco - Carmencita
TTITLE12=Los Kentons - La Politica
TTITLE13=Sandy Reyes - El Guardia Del Arcenal
TTITLE14=Henry Garcia - Te Quiero, Te Quiero
TTITLE15=Charlie Rodriguez y Carlos David - Cojelo Leon
EXTD=YEAR: 2000
EXTT0=
EXTT1=
EXTT2=
EXTT3=
EXTT4=
EXTT5=
EXTT6=
EXTT7=
EXTT8=
EXTT9=
EXTT10=
EXTT11=
EXTT12=
EXTT13=
EXTT14=
EXTT15=
PLAYORDER=
